<svg width="20" height="20" viewBox="0 0 20 20" fill="none" xmlns="http://www.w3.org/2000/svg">
<g id="Calendar-Icon">
<path id="Rectangle 26" d="M1.66699 7.50001C1.66699 6.25385 1.66699 5.63077 1.93494 5.16667C2.11048 4.86263 2.36295 4.61016 2.66699 4.43462C3.13109 4.16667 3.75417 4.16667 5.00033 4.16667H15.0003C16.2465 4.16667 16.8696 4.16667 17.3337 4.43462C17.6377 4.61016 17.8902 4.86263 18.0657 5.16667C18.3337 5.63077 18.3337 6.25385 18.3337 7.50001C18.3337 7.81154 18.3337 7.96731 18.2667 8.08334C18.2228 8.15935 18.1597 8.22247 18.0837 8.26635C17.9676 8.33334 17.8119 8.33334 17.5003 8.33334H2.50032C2.18879 8.33334 2.03302 8.33334 1.91699 8.26635C1.84098 8.22247 1.77786 8.15935 1.73398 8.08334C1.66699 7.96731 1.66699 7.81154 1.66699 7.50001Z" fill="#737373" stroke="#737373" stroke-width="1.5"/>
<g id="Subtract">
<path fill-rule="evenodd" clip-rule="evenodd" d="M1.66699 14.3333C1.66699 16.219 1.66699 17.1618 2.25278 17.7475C2.83856 18.3333 3.78137 18.3333 5.66699 18.3333H14.3337C16.2193 18.3333 17.1621 18.3333 17.7479 17.7475C18.3337 17.1618 18.3337 16.219 18.3337 14.3333V11C18.3337 10.5286 18.3337 10.2929 18.1872 10.1464C18.0408 10 17.8051 10 17.3337 10H2.66699C2.19559 10 1.95989 10 1.81344 10.1464C1.66699 10.2929 1.66699 10.5286 1.66699 11V14.3333ZM5.83366 12.5C5.83366 12.1885 5.83366 12.0327 5.90065 11.9167C5.94453 11.8407 6.00765 11.7775 6.08366 11.7337C6.19968 11.6667 6.35545 11.6667 6.66699 11.6667H8.33366C8.6452 11.6667 8.80097 11.6667 8.91699 11.7337C8.993 11.7775 9.05612 11.8407 9.1 11.9167C9.16699 12.0327 9.16699 12.1885 9.16699 12.5C9.16699 12.8115 9.16699 12.9673 9.1 13.0833C9.05612 13.1593 8.993 13.2225 8.91699 13.2663C8.80097 13.3333 8.6452 13.3333 8.33366 13.3333H6.66699C6.35545 13.3333 6.19968 13.3333 6.08366 13.2663C6.00765 13.2225 5.94453 13.1593 5.90065 13.0833C5.83366 12.9673 5.83366 12.8115 5.83366 12.5ZM5.90065 15.25C5.83366 15.366 5.83366 15.5218 5.83366 15.8333C5.83366 16.1449 5.83366 16.3006 5.90065 16.4167C5.94453 16.4927 6.00765 16.5558 6.08366 16.5997C6.19968 16.6667 6.35545 16.6667 6.66699 16.6667H8.33366C8.6452 16.6667 8.80097 16.6667 8.91699 16.5997C8.993 16.5558 9.05612 16.4927 9.1 16.4167C9.16699 16.3006 9.16699 16.1449 9.16699 15.8333C9.16699 15.5218 9.16699 15.366 9.1 15.25C9.05612 15.174 8.993 15.1109 8.91699 15.067C8.80097 15 8.6452 15 8.33366 15H6.66699C6.35545 15 6.19968 15 6.08366 15.067C6.00765 15.1109 5.94453 15.174 5.90065 15.25ZM10.8337 12.5C10.8337 12.1885 10.8337 12.0327 10.9006 11.9167C10.9445 11.8407 11.0077 11.7775 11.0837 11.7337C11.1997 11.6667 11.3555 11.6667 11.667 11.6667H13.3337C13.6452 11.6667 13.801 11.6667 13.917 11.7337C13.993 11.7775 14.0561 11.8407 14.1 11.9167C14.167 12.0327 14.167 12.1885 14.167 12.5C14.167 12.8115 14.167 12.9673 14.1 13.0833C14.0561 13.1593 13.993 13.2225 13.917 13.2663C13.801 13.3333 13.6452 13.3333 13.3337 13.3333H11.667C11.3555 13.3333 11.1997 13.3333 11.0837 13.2663C11.0077 13.2225 10.9445 13.1593 10.9006 13.0833C10.8337 12.9673 10.8337 12.8115 10.8337 12.5ZM10.9006 15.25C10.8337 15.366 10.8337 15.5218 10.8337 15.8333C10.8337 16.1449 10.8337 16.3006 10.9006 16.4167C10.9445 16.4927 11.0077 16.5558 11.0837 16.5997C11.1997 16.6667 11.3555 16.6667 11.667 16.6667H13.3337C13.6452 16.6667 13.801 16.6667 13.917 16.5997C13.993 16.5558 14.0561 16.4927 14.1 16.4167C14.167 16.3006 14.167 16.1449 14.167 15.8333C14.167 15.5218 14.167 15.366 14.1 15.25C14.0561 15.174 13.993 15.1109 13.917 15.067C13.801 15 13.6452 15 13.3337 15H11.667C11.3555 15 11.1997 15 11.0837 15.067C11.0077 15.1109 10.9445 15.174 10.9006 15.25Z" fill="#737373"/>
<path d="M2.25278 17.7475L2.78311 17.2172L2.25278 17.7475ZM18.1872 10.1464L18.7175 9.61612V9.61612L18.1872 10.1464ZM1.81344 10.1464L1.28311 9.61612L1.28311 9.61612L1.81344 10.1464ZM5.90065 11.9167L5.25113 11.5417L5.25113 11.5417L5.90065 11.9167ZM6.08366 11.7337L5.70866 11.0841L5.70866 11.0841L6.08366 11.7337ZM8.91699 11.7337L9.29199 11.0841L9.29199 11.0841L8.91699 11.7337ZM9.1 11.9167L9.74953 11.5417L9.74952 11.5417L9.1 11.9167ZM9.1 13.0833L9.74952 13.4583L9.74953 13.4583L9.1 13.0833ZM8.91699 13.2663L9.29199 13.9159L9.29199 13.9159L8.91699 13.2663ZM6.08366 13.2663L5.70866 13.9159L5.70866 13.9159L6.08366 13.2663ZM5.90065 13.0833L5.25113 13.4583L5.25113 13.4583L5.90065 13.0833ZM5.90065 15.25L5.25113 14.875L5.25113 14.875L5.90065 15.25ZM5.90065 16.4167L5.25113 16.7917L5.25113 16.7917L5.90065 16.4167ZM6.08366 16.5997L5.70866 17.2492L5.70866 17.2492L6.08366 16.5997ZM8.91699 16.5997L9.29199 17.2492L9.29199 17.2492L8.91699 16.5997ZM9.1 16.4167L9.74952 16.7917L9.74952 16.7917L9.1 16.4167ZM9.1 15.25L9.74952 14.875V14.875L9.1 15.25ZM8.91699 15.067L8.54199 15.7165L8.54199 15.7165L8.91699 15.067ZM6.08366 15.067L6.45866 15.7165L6.45866 15.7165L6.08366 15.067ZM10.9006 11.9167L10.2511 11.5417L10.2511 11.5417L10.9006 11.9167ZM11.0837 11.7337L11.4587 12.3832L11.4587 12.3832L11.0837 11.7337ZM13.917 11.7337L14.292 11.0841L14.292 11.0841L13.917 11.7337ZM14.1 11.9167L14.7495 11.5417L14.7495 11.5417L14.1 11.9167ZM14.1 13.0833L14.7495 13.4583L14.7495 13.4583L14.1 13.0833ZM13.917 13.2663L14.292 13.9159L14.292 13.9159L13.917 13.2663ZM11.0837 13.2663L11.4587 12.6168L11.4587 12.6168L11.0837 13.2663ZM10.9006 13.0833L10.2511 13.4583L10.2511 13.4583L10.9006 13.0833ZM10.9006 15.25L10.2511 14.875L10.2511 14.875L10.9006 15.25ZM10.9006 16.4167L10.2511 16.7917L10.2511 16.7917L10.9006 16.4167ZM11.0837 16.5997L11.4587 15.9502L11.4587 15.9502L11.0837 16.5997ZM13.917 16.5997L14.292 17.2492L14.292 17.2492L13.917 16.5997ZM14.1 16.4167L14.7495 16.7917L14.7495 16.7917L14.1 16.4167ZM14.1 15.25L14.7495 14.875V14.875L14.1 15.25ZM13.917 15.067L14.292 14.4175L14.292 14.4175L13.917 15.067ZM11.0837 15.067L11.4587 15.7165L11.4587 15.7165L11.0837 15.067ZM2.78311 17.2172C2.65279 17.0869 2.54557 16.8894 2.48353 16.4279C2.41859 15.9449 2.41699 15.2973 2.41699 14.3333H0.916992C0.916992 15.2549 0.915399 16.0216 0.996903 16.6278C1.08131 17.2556 1.26698 17.8224 1.72245 18.2779L2.78311 17.2172ZM5.66699 17.5833C4.70298 17.5833 4.05542 17.5817 3.57238 17.5168C3.11092 17.4548 2.91343 17.3475 2.78311 17.2172L1.72245 18.2779C2.17792 18.7333 2.74472 18.919 3.37251 19.0034C3.97873 19.0849 4.74539 19.0833 5.66699 19.0833V17.5833ZM14.3337 17.5833H5.66699V19.0833H14.3337V17.5833ZM17.2175 17.2172C17.0872 17.3475 16.8897 17.4548 16.4283 17.5168C15.9452 17.5817 15.2977 17.5833 14.3337 17.5833V19.0833C15.2553 19.0833 16.0219 19.0849 16.6281 19.0034C17.2559 18.919 17.8227 18.7333 18.2782 18.2779L17.2175 17.2172ZM17.5837 14.3333C17.5837 15.2973 17.5821 15.9449 17.5171 16.4279C17.4551 16.8894 17.3479 17.0869 17.2175 17.2172L18.2782 18.2779C18.7337 17.8224 18.9193 17.2556 19.0037 16.6278C19.0853 16.0216 19.0837 15.2549 19.0837 14.3333H17.5837ZM17.5837 11V14.3333H19.0837V11H17.5837ZM17.6569 10.6768C17.618 10.6379 17.5924 10.5949 17.5783 10.5607C17.5666 10.5324 17.5682 10.5228 17.572 10.5513C17.5759 10.5803 17.5796 10.6276 17.5816 10.7073C17.5836 10.7865 17.5837 10.8794 17.5837 11H19.0837C19.0837 10.7855 19.0853 10.5492 19.0587 10.3514C19.0292 10.1321 18.9533 9.85192 18.7175 9.61612L17.6569 10.6768ZM17.3337 10.75C17.4543 10.75 17.5471 10.75 17.6264 10.752C17.706 10.7541 17.7534 10.7577 17.7824 10.7616C17.8108 10.7654 17.8013 10.767 17.773 10.7554C17.7387 10.7413 17.6957 10.7156 17.6569 10.6768L18.7175 9.61612C18.4817 9.38032 18.2016 9.30448 17.9822 9.27499C17.7845 9.24841 17.5482 9.25 17.3337 9.25V10.75ZM2.66699 10.75H17.3337V9.25H2.66699V10.75ZM2.34377 10.6768C2.30492 10.7156 2.26192 10.7413 2.22765 10.7554C2.19937 10.767 2.18981 10.7654 2.21829 10.7616C2.24725 10.7577 2.29462 10.7541 2.37426 10.752C2.45354 10.75 2.54635 10.75 2.66699 10.75V9.25C2.45249 9.25 2.21617 9.24841 2.01842 9.27499C1.7991 9.30448 1.51891 9.38032 1.28311 9.61612L2.34377 10.6768ZM2.41699 11C2.41699 10.8794 2.41704 10.7865 2.41904 10.7073C2.42105 10.6276 2.42472 10.5803 2.42861 10.5513C2.43244 10.5228 2.434 10.5324 2.42237 10.5607C2.40827 10.5949 2.38262 10.6379 2.34377 10.6768L1.28311 9.61612C1.04731 9.85192 0.971473 10.1321 0.941986 10.3514C0.915399 10.5492 0.916992 10.7855 0.916992 11H2.41699ZM2.41699 14.3333V11H0.916992V14.3333H2.41699ZM5.25113 11.5417C5.14074 11.7329 5.10818 11.9229 5.09509 12.0673C5.08294 12.2014 5.08366 12.358 5.08366 12.5H6.58366C6.58366 12.4202 6.58368 12.3591 6.58459 12.3068C6.5855 12.2543 6.58716 12.2227 6.58897 12.2027C6.59263 12.1623 6.59356 12.2165 6.55017 12.2917L5.25113 11.5417ZM5.70866 11.0841C5.51863 11.1938 5.36084 11.3516 5.25113 11.5417L6.55016 12.2917C6.52822 12.3297 6.49666 12.3612 6.45866 12.3832L5.70866 11.0841ZM6.66699 10.9167C6.52503 10.9167 6.36841 10.9159 6.23431 10.9281C6.0899 10.9412 5.89985 10.9738 5.70866 11.0841L6.45866 12.3832C6.3835 12.4266 6.32934 12.4256 6.36971 12.422C6.38965 12.4202 6.42133 12.4185 6.47376 12.4176C6.52614 12.4167 6.58721 12.4167 6.66699 12.4167V10.9167ZM8.33366 10.9167H6.66699V12.4167H8.33366V10.9167ZM9.29199 11.0841C9.1008 10.9738 8.91075 10.9412 8.76634 10.9281C8.63225 10.9159 8.47563 10.9167 8.33366 10.9167V12.4167C8.41344 12.4167 8.47451 12.4167 8.52689 12.4176C8.57932 12.4185 8.611 12.4202 8.63095 12.422C8.67131 12.4256 8.61715 12.4266 8.54199 12.3832L9.29199 11.0841ZM9.74952 11.5417C9.63981 11.3516 9.48202 11.1938 9.29199 11.0841L8.54199 12.3832C8.50399 12.3612 8.47243 12.3297 8.45049 12.2917L9.74952 11.5417ZM9.91699 12.5C9.91699 12.358 9.91771 12.2014 9.90556 12.0673C9.89247 11.9229 9.85991 11.7329 9.74953 11.5417L8.45049 12.2917C8.40709 12.2165 8.40802 12.1623 8.41168 12.2027C8.41349 12.2227 8.41515 12.2543 8.41606 12.3068C8.41697 12.3591 8.41699 12.4202 8.41699 12.5H9.91699ZM9.74953 13.4583C9.85991 13.2671 9.89247 13.0771 9.90556 12.9327C9.91771 12.7986 9.91699 12.642 9.91699 12.5H8.41699C8.41699 12.5798 8.41697 12.6409 8.41606 12.6932C8.41515 12.7457 8.41349 12.7773 8.41168 12.7973C8.40802 12.8377 8.40709 12.7835 8.45048 12.7083L9.74953 13.4583ZM9.29199 13.9159C9.48202 13.8062 9.63981 13.6484 9.74952 13.4583L8.45049 12.7083C8.47243 12.6703 8.50399 12.6388 8.54199 12.6168L9.29199 13.9159ZM8.33366 14.0833C8.47563 14.0833 8.63225 14.0841 8.76634 14.0719C8.91075 14.0588 9.1008 14.0262 9.29199 13.9159L8.54199 12.6168C8.61715 12.5734 8.67131 12.5744 8.63095 12.578C8.611 12.5798 8.57932 12.5815 8.52689 12.5824C8.47451 12.5833 8.41344 12.5833 8.33366 12.5833V14.0833ZM6.66699 14.0833H8.33366V12.5833H6.66699V14.0833ZM5.70866 13.9159C5.89985 14.0262 6.0899 14.0588 6.23431 14.0719C6.36841 14.0841 6.52502 14.0833 6.66699 14.0833V12.5833C6.58721 12.5833 6.52614 12.5833 6.47376 12.5824C6.42133 12.5815 6.38965 12.5798 6.36971 12.578C6.32934 12.5744 6.3835 12.5734 6.45866 12.6168L5.70866 13.9159ZM5.25113 13.4583C5.36084 13.6484 5.51864 13.8062 5.70866 13.9159L6.45866 12.6168C6.49666 12.6388 6.52822 12.6703 6.55016 12.7083L5.25113 13.4583ZM5.08366 12.5C5.08366 12.642 5.08294 12.7986 5.09509 12.9327C5.10818 13.0771 5.14074 13.2671 5.25113 13.4583L6.55017 12.7083C6.59356 12.7835 6.59263 12.8377 6.58897 12.7973C6.58716 12.7773 6.5855 12.7457 6.58459 12.6932C6.58368 12.6409 6.58366 12.5798 6.58366 12.5H5.08366ZM6.58366 15.8333C6.58366 15.7536 6.58368 15.6925 6.58459 15.6401C6.5855 15.5877 6.58716 15.556 6.58897 15.536C6.59263 15.4957 6.59356 15.5498 6.55017 15.625L5.25113 14.875C5.14074 15.0662 5.10818 15.2562 5.09509 15.4007C5.08294 15.5347 5.08366 15.6914 5.08366 15.8333H6.58366ZM6.55017 16.0417C6.59356 16.1168 6.59263 16.171 6.58897 16.1306C6.58716 16.1107 6.5855 16.079 6.58459 16.0266C6.58368 15.9742 6.58366 15.9131 6.58366 15.8333H5.08366C5.08366 15.9753 5.08294 16.1319 5.09509 16.266C5.10818 16.4104 5.14074 16.6005 5.25113 16.7917L6.55017 16.0417ZM6.45866 15.9502C6.49666 15.9721 6.52822 16.0037 6.55016 16.0417L5.25113 16.7917C5.36084 16.9817 5.51863 17.1395 5.70866 17.2492L6.45866 15.9502ZM6.66699 15.9167C6.58721 15.9167 6.52614 15.9166 6.47376 15.9157C6.42133 15.9148 6.38965 15.9132 6.36971 15.9114C6.32934 15.9077 6.3835 15.9068 6.45866 15.9502L5.70866 17.2492C5.89985 17.3596 6.0899 17.3921 6.23431 17.4052C6.36841 17.4174 6.52503 17.4167 6.66699 17.4167V15.9167ZM8.33366 15.9167H6.66699V17.4167H8.33366V15.9167ZM8.54199 15.9502C8.61715 15.9068 8.67131 15.9077 8.63095 15.9114C8.611 15.9132 8.57932 15.9148 8.52689 15.9157C8.47451 15.9166 8.41344 15.9167 8.33366 15.9167V17.4167C8.47563 17.4167 8.63225 17.4174 8.76634 17.4052C8.91075 17.3921 9.10081 17.3596 9.29199 17.2492L8.54199 15.9502ZM8.45049 16.0417C8.47243 16.0037 8.50399 15.9721 8.54199 15.9502L9.29199 17.2492C9.48202 17.1395 9.63981 16.9817 9.74952 16.7917L8.45049 16.0417ZM8.41699 15.8333C8.41699 15.9131 8.41697 15.9742 8.41606 16.0266C8.41515 16.079 8.41349 16.1107 8.41168 16.1306C8.40802 16.171 8.40709 16.1168 8.45049 16.0417L9.74952 16.7917C9.85991 16.6005 9.89247 16.4104 9.90556 16.266C9.91771 16.1319 9.91699 15.9753 9.91699 15.8333H8.41699ZM8.45049 15.625C8.40709 15.5498 8.40802 15.4957 8.41168 15.536C8.41349 15.556 8.41515 15.5877 8.41606 15.6401C8.41697 15.6925 8.41699 15.7536 8.41699 15.8333H9.91699C9.91699 15.6914 9.91771 15.5347 9.90556 15.4007C9.89247 15.2562 9.85991 15.0662 9.74952 14.875L8.45049 15.625ZM8.54199 15.7165C8.50399 15.6946 8.47243 15.663 8.45049 15.625L9.74952 14.875C9.63981 14.685 9.48202 14.5272 9.29199 14.4175L8.54199 15.7165ZM8.33366 15.75C8.41344 15.75 8.47451 15.75 8.52689 15.7509C8.57932 15.7518 8.611 15.7535 8.63095 15.7553C8.67131 15.759 8.61715 15.7599 8.54199 15.7165L9.29199 14.4175C9.10081 14.3071 8.91075 14.2745 8.76634 14.2614C8.63225 14.2493 8.47563 14.25 8.33366 14.25V15.75ZM6.66699 15.75H8.33366V14.25H6.66699V15.75ZM6.45866 15.7165C6.3835 15.7599 6.32934 15.759 6.36971 15.7553C6.38965 15.7535 6.42133 15.7518 6.47376 15.7509C6.52614 15.75 6.58721 15.75 6.66699 15.75V14.25C6.52503 14.25 6.36841 14.2493 6.23431 14.2614C6.0899 14.2745 5.89985 14.3071 5.70866 14.4175L6.45866 15.7165ZM6.55016 15.625C6.52822 15.663 6.49666 15.6946 6.45866 15.7165L5.70866 14.4175C5.51863 14.5272 5.36084 14.685 5.25113 14.875L6.55016 15.625ZM10.2511 11.5417C10.1407 11.7329 10.1082 11.9229 10.0951 12.0673C10.0829 12.2014 10.0837 12.358 10.0837 12.5H11.5837C11.5837 12.4202 11.5837 12.3591 11.5846 12.3068C11.5855 12.2543 11.5872 12.2227 11.589 12.2027C11.5926 12.1623 11.5936 12.2165 11.5502 12.2917L10.2511 11.5417ZM10.7087 11.0841C10.5186 11.1938 10.3608 11.3516 10.2511 11.5417L11.5502 12.2917C11.5282 12.3297 11.4967 12.3612 11.4587 12.3832L10.7087 11.0841ZM11.667 10.9167C11.525 10.9167 11.3684 10.9159 11.2343 10.9281C11.0899 10.9412 10.8998 10.9738 10.7087 11.0841L11.4587 12.3832C11.3835 12.4266 11.3293 12.4256 11.3697 12.422C11.3897 12.4202 11.4213 12.4185 11.4738 12.4176C11.5261 12.4167 11.5872 12.4167 11.667 12.4167V10.9167ZM13.3337 10.9167H11.667V12.4167H13.3337V10.9167ZM14.292 11.0841C14.1008 10.9738 13.9107 10.9412 13.7663 10.9281C13.6322 10.9159 13.4756 10.9167 13.3337 10.9167V12.4167C13.4134 12.4167 13.4745 12.4167 13.5269 12.4176C13.5793 12.4185 13.611 12.4202 13.6309 12.422C13.6713 12.4256 13.6172 12.4266 13.542 12.3832L14.292 11.0841ZM14.7495 11.5417C14.6398 11.3516 14.482 11.1938 14.292 11.0841L13.542 12.3832C13.504 12.3612 13.4724 12.3297 13.4505 12.2917L14.7495 11.5417ZM14.917 12.5C14.917 12.358 14.9177 12.2014 14.9056 12.0673C14.8925 11.9229 14.8599 11.7329 14.7495 11.5417L13.4505 12.2917C13.4071 12.2165 13.408 12.1623 13.4117 12.2027C13.4135 12.2227 13.4151 12.2543 13.4161 12.3068C13.417 12.3591 13.417 12.4202 13.417 12.5H14.917ZM14.7495 13.4583C14.8599 13.2671 14.8925 13.0771 14.9056 12.9327C14.9177 12.7986 14.917 12.642 14.917 12.5H13.417C13.417 12.5798 13.417 12.6409 13.4161 12.6932C13.4151 12.7457 13.4135 12.7773 13.4117 12.7973C13.408 12.8377 13.4071 12.7835 13.4505 12.7083L14.7495 13.4583ZM14.292 13.9159C14.482 13.8062 14.6398 13.6484 14.7495 13.4583L13.4505 12.7083C13.4724 12.6703 13.504 12.6388 13.542 12.6168L14.292 13.9159ZM13.3337 14.0833C13.4756 14.0833 13.6322 14.0841 13.7663 14.0719C13.9107 14.0588 14.1008 14.0262 14.292 13.9159L13.542 12.6168C13.6172 12.5734 13.6713 12.5744 13.6309 12.578C13.611 12.5798 13.5793 12.5815 13.5269 12.5824C13.4745 12.5833 13.4134 12.5833 13.3337 12.5833V14.0833ZM11.667 14.0833H13.3337V12.5833H11.667V14.0833ZM10.7087 13.9159C10.8998 14.0262 11.0899 14.0588 11.2343 14.0719C11.3684 14.0841 11.525 14.0833 11.667 14.0833V12.5833C11.5872 12.5833 11.5261 12.5833 11.4738 12.5824C11.4213 12.5815 11.3897 12.5798 11.3697 12.578C11.3293 12.5744 11.3835 12.5734 11.4587 12.6168L10.7087 13.9159ZM10.2511 13.4583C10.3608 13.6484 10.5186 13.8062 10.7087 13.9159L11.4587 12.6168C11.4967 12.6388 11.5282 12.6703 11.5502 12.7083L10.2511 13.4583ZM10.0837 12.5C10.0837 12.642 10.0829 12.7986 10.0951 12.9327C10.1082 13.0771 10.1407 13.2671 10.2511 13.4583L11.5502 12.7083C11.5936 12.7835 11.5926 12.8377 11.589 12.7973C11.5872 12.7773 11.5855 12.7457 11.5846 12.6932C11.5837 12.6409 11.5837 12.5798 11.5837 12.5H10.0837ZM11.5837 15.8333C11.5837 15.7536 11.5837 15.6925 11.5846 15.6401C11.5855 15.5877 11.5872 15.556 11.589 15.536C11.5926 15.4957 11.5936 15.5498 11.5502 15.625L10.2511 14.875C10.1407 15.0662 10.1082 15.2562 10.0951 15.4007C10.0829 15.5347 10.0837 15.6914 10.0837 15.8333H11.5837ZM11.5502 16.0417C11.5936 16.1168 11.5926 16.171 11.589 16.1306C11.5872 16.1107 11.5855 16.079 11.5846 16.0266C11.5837 15.9742 11.5837 15.9131 11.5837 15.8333H10.0837C10.0837 15.9753 10.0829 16.1319 10.0951 16.266C10.1082 16.4104 10.1407 16.6005 10.2511 16.7917L11.5502 16.0417ZM11.4587 15.9502C11.4967 15.9721 11.5282 16.0037 11.5502 16.0417L10.2511 16.7917C10.3608 16.9817 10.5186 17.1395 10.7087 17.2492L11.4587 15.9502ZM11.667 15.9167C11.5872 15.9167 11.5261 15.9166 11.4738 15.9157C11.4213 15.9148 11.3897 15.9132 11.3697 15.9114C11.3293 15.9077 11.3835 15.9068 11.4587 15.9502L10.7087 17.2492C10.8998 17.3596 11.0899 17.3921 11.2343 17.4052C11.3684 17.4174 11.525 17.4167 11.667 17.4167V15.9167ZM13.3337 15.9167H11.667V17.4167H13.3337V15.9167ZM13.542 15.9502C13.6172 15.9068 13.6713 15.9077 13.6309 15.9114C13.611 15.9132 13.5793 15.9148 13.5269 15.9157C13.4745 15.9166 13.4134 15.9167 13.3337 15.9167V17.4167C13.4756 17.4167 13.6322 17.4174 13.7663 17.4052C13.9107 17.3921 14.1008 17.3596 14.292 17.2492L13.542 15.9502ZM13.4505 16.0417C13.4724 16.0037 13.504 15.9721 13.542 15.9502L14.292 17.2492C14.482 17.1395 14.6398 16.9817 14.7495 16.7917L13.4505 16.0417ZM13.417 15.8333C13.417 15.9131 13.417 15.9742 13.4161 16.0266C13.4151 16.079 13.4135 16.1107 13.4117 16.1306C13.408 16.171 13.4071 16.1168 13.4505 16.0417L14.7495 16.7917C14.8599 16.6005 14.8925 16.4104 14.9056 16.266C14.9177 16.1319 14.917 15.9753 14.917 15.8333H13.417ZM13.4505 15.625C13.4071 15.5498 13.408 15.4957 13.4117 15.536C13.4135 15.556 13.4151 15.5877 13.4161 15.6401C13.417 15.6925 13.417 15.7536 13.417 15.8333H14.917C14.917 15.6914 14.9177 15.5347 14.9056 15.4007C14.8925 15.2562 14.8599 15.0662 14.7495 14.875L13.4505 15.625ZM13.542 15.7165C13.504 15.6946 13.4724 15.663 13.4505 15.625L14.7495 14.875C14.6398 14.685 14.482 14.5272 14.292 14.4175L13.542 15.7165ZM13.3337 15.75C13.4134 15.75 13.4745 15.75 13.5269 15.7509C13.5793 15.7518 13.611 15.7535 13.6309 15.7553C13.6713 15.759 13.6172 15.7599 13.542 15.7165L14.292 14.4175C14.1008 14.3071 13.9107 14.2745 13.7663 14.2614C13.6322 14.2493 13.4756 14.25 13.3337 14.25V15.75ZM11.667 15.75H13.3337V14.25H11.667V15.75ZM11.4587 15.7165C11.3835 15.7599 11.3293 15.759 11.3697 15.7553C11.3897 15.7535 11.4213 15.7518 11.4738 15.7509C11.5261 15.75 11.5872 15.75 11.667 15.75V14.25C11.525 14.25 11.3684 14.2493 11.2343 14.2614C11.0899 14.2745 10.8998 14.3071 10.7087 14.4175L11.4587 15.7165ZM11.5502 15.625C11.5282 15.663 11.4967 15.6946 11.4587 15.7165L10.7087 14.4175C10.5186 14.5272 10.3608 14.685 10.2511 14.875L11.5502 15.625Z" fill="#737373"/>
</g>
<path id="Line 1" d="M5.83301 2.5L5.83301 5" stroke="#737373" stroke-width="2" stroke-linecap="round"/>
<path id="Line 2" d="M14.167 2.5L14.167 5" stroke="#737373" stroke-width="2" stroke-linecap="round"/>
</g>
</svg>
