<svg width="24" height="24" viewBox="0 0 24 24" fill="none" xmlns="http://www.w3.org/2000/svg">
<g id="Group">
<path id="Vector" d="M24 10.886L12 20.9049L0 10.886L12 0L24 10.886Z" fill="#737373"/>
<g id="Group_2">
<path id="Vector_2" d="M4.47559 15.8088V17.2763C6.97523 20.5447 9.63807 22.2657 12.2236 22.2657C14.8263 22.2657 17.3689 20.5314 19.6281 17.2362V15.6887C15.0926 22.9194 9.58654 22.9594 4.47559 15.8088Z" fill="#737373"/>
</g>
<g id="Group_3">
<path id="Vector_3" d="M23.0124 21.5586C22.9265 21.5586 22.8577 21.4519 22.8577 21.3185C22.8577 16.1957 21.3287 12.2868 18.3137 9.69872C16.0546 7.76431 13.7697 7.35075 13.7525 7.35075C13.6666 7.33741 13.6065 7.21734 13.6151 7.08394C13.6237 6.95053 13.701 6.85714 13.7869 6.87048C13.8126 6.87048 16.1577 7.29739 18.4683 9.28516C20.6158 11.1262 23.167 14.7015 23.167 21.3185C23.167 21.4519 23.0983 21.5586 23.0124 21.5586Z" fill="#737373"/>
</g>
<g id="Group_4">
<path id="Vector_4" d="M22.7979 23.6665C22.7979 23.8532 22.8923 24 23.0126 24C23.1329 24 23.2273 23.8532 23.2273 23.6665C23.2273 23.4797 23.0126 21.7454 23.0126 21.7454C23.0126 21.7454 22.7979 23.4797 22.7979 23.6665Z" fill="#737373"/>
<path id="Vector_5" d="M23.8537 23.2529C23.7936 23.0928 23.0635 21.7321 23.0635 21.7321C23.0635 21.7321 23.4157 23.413 23.4758 23.5731C23.5359 23.7332 23.6648 23.7999 23.7678 23.7065C23.8709 23.6265 23.9139 23.413 23.8537 23.2529Z" fill="#737373"/>
<path id="Vector_6" d="M22.1876 23.2529C22.1275 23.413 22.1705 23.6265 22.2735 23.7065C22.3766 23.7999 22.5141 23.7332 22.5656 23.5731C22.6257 23.413 22.9779 21.7321 22.9779 21.7321C22.9779 21.7321 22.2478 23.0928 22.1876 23.2529Z" fill="#737373"/>
</g>
</g>
</svg>
